<svg xmlns="http://www.w3.org/2000/svg" version="1.1" xmlns:xlink="http://www.w3.org/1999/xlink" xmlns:svgjs="http://svgjs.com/svgjs" width="1920" height="800" preserveAspectRatio="none" viewBox="0 0 1920 800"><g mask="url(&quot;#SvgjsMask1032&quot;)" fill="none"><path d="M1124.82 848.92C1266.86 760.35 1191.22 265.9 1445.77 261.3 1700.32 256.7 1914.97 512.64 2087.67 517.3" stroke="rgba(255, 87, 34, 0.03)" stroke-width="2"></path><path d="M343.24 843.42C536.55 822.57 651.82 403.95 982.88 401.01 1313.94 398.07 1302.7 501.01 1622.52 501.01 1942.34 501.01 2100.31 401.31 2262.16 401.01" stroke="rgba(255, 87, 34, 0.18)" stroke-width="2"></path><path d="M933.36 941.33C1034.02 940.57 1009.44 850.92 1323.78 842.85 1638.13 834.78 1889.84 491.38 2104.63 482.85" stroke="rgba(255, 87, 34, 0.18)" stroke-width="2"></path><path d="M655.4 859.24C885.58 836.21 1033.76 345.52 1424.3 344.44 1814.84 343.36 1991.85 581.67 2193.2 584.44" stroke="rgba(255, 87, 34, 0.18)" stroke-width="2"></path><path d="M780.19 827.38C939.17 821.5 1034.89 584.02 1360.81 566.92 1686.72 549.82 1774.13 242.74 1941.42 230.92" stroke="rgba(255, 87, 34, 0.18)" stroke-width="2"></path></g><defs><mask id="SvgjsMask1032"><rect width="1920" height="800" fill="#ffffff"></rect></mask></defs></svg>