<svg xmlns="http://www.w3.org/2000/svg" version="1.1" xmlns:xlink="http://www.w3.org/1999/xlink" xmlns:svgjs="http://svgjs.com/svgjs" width="1440" height="560" preserveAspectRatio="none" viewBox="0 0 1440 560"><g mask="url(&quot;#SvgjsMask1082&quot;)" fill="none"><rect width="1440" height="560" x="0" y="0" fill="url(#SvgjsLinearGradient1083)"></rect><path d="M55 -28.61L119.95 8.89L119.95 83.89L55 121.39L-9.95 83.89L-9.95 8.89zM55 196.39L119.95 233.89L119.95 308.89L55 346.39L-9.95 308.89L-9.95 233.89zM119.95 308.89L184.91 346.39L184.91 421.39L119.95 458.89L55 421.39L55 346.39zM55 421.39L119.95 458.89L119.95 533.89L55 571.39L-9.95 533.89L-9.95 458.89zM184.91 -28.61L249.86 8.89L249.86 83.89L184.91 121.39L119.95 83.89L119.95 8.89zM249.86 83.89L314.81 121.39L314.81 196.39L249.86 233.89L184.91 196.39L184.91 121.39zM249.86 533.89L314.81 571.39L314.81 646.39L249.86 683.89L184.91 646.39L184.91 571.39zM314.81 -28.61L379.77 8.89L379.77 83.89L314.81 121.39L249.86 83.89L249.86 8.89zM379.77 83.89L444.72 121.39L444.72 196.39L379.77 233.89L314.81 196.39L314.81 121.39zM379.77 308.89L444.72 346.39L444.72 421.39L379.77 458.89L314.81 421.39L314.81 346.39zM314.81 421.39L379.77 458.89L379.77 533.89L314.81 571.39L249.86 533.89L249.86 458.89zM444.72 -28.61L509.68 8.89L509.68 83.89L444.72 121.39L379.77 83.89L379.77 8.89zM509.68 83.89L574.63 121.39L574.63 196.39L509.68 233.89L444.72 196.39L444.72 121.39zM444.72 421.39L509.68 458.89L509.68 533.89L444.72 571.39L379.77 533.89L379.77 458.89zM509.68 533.89L574.63 571.39L574.63 646.39L509.68 683.89L444.72 646.39L444.72 571.39zM639.58 83.89L704.54 121.39L704.54 196.39L639.58 233.89L574.63 196.39L574.63 121.39zM574.63 196.39L639.58 233.89L639.58 308.89L574.63 346.39L509.68 308.89L509.68 233.89zM704.54 -28.61L769.49 8.89L769.49 83.89L704.54 121.39L639.58 83.89L639.58 8.89zM704.54 421.39L769.49 458.89L769.49 533.89L704.54 571.39L639.58 533.89L639.58 458.89zM769.49 533.89L834.45 571.39L834.45 646.39L769.49 683.89L704.54 646.39L704.54 571.39zM899.4 533.89L964.35 571.39L964.35 646.39L899.4 683.89L834.44 646.39L834.44 571.39zM964.35 -28.61L1029.31 8.89L1029.31 83.89L964.35 121.39L899.4 83.89L899.4 8.89zM964.35 421.39L1029.31 458.89L1029.31 533.89L964.35 571.39L899.4 533.89L899.4 458.89zM1029.31 533.89L1094.26 571.39L1094.26 646.39L1029.31 683.89L964.35 646.39L964.35 571.39zM1159.21 83.89L1224.17 121.39L1224.17 196.39L1159.21 233.89L1094.26 196.39L1094.26 121.39zM1094.26 196.39L1159.21 233.89L1159.21 308.89L1094.26 346.39L1029.31 308.89L1029.31 233.89zM1159.21 308.89L1224.17 346.39L1224.17 421.39L1159.21 458.89L1094.26 421.39L1094.26 346.39zM1224.17 -28.61L1289.12 8.89L1289.12 83.89L1224.17 121.39L1159.21 83.89L1159.21 8.89zM1289.12 83.89L1354.07 121.39L1354.07 196.39L1289.12 233.89L1224.17 196.39L1224.17 121.39zM1224.17 196.39L1289.12 233.89L1289.12 308.89L1224.17 346.39L1159.21 308.89L1159.21 233.89zM1354.08 196.39L1419.03 233.89L1419.03 308.89L1354.08 346.39L1289.12 308.89L1289.12 233.89zM1483.98 -28.61L1548.94 8.89L1548.94 83.89L1483.98 121.39L1419.03 83.89L1419.03 8.89zM1483.98 196.39L1548.94 233.89L1548.94 308.89L1483.98 346.39L1419.03 308.89L1419.03 233.89z" stroke="rgba(153, 154, 154, 0.13)" stroke-width="2"></path><path d="M47.5 -28.61 a7.5 7.5 0 1 0 15 0 a7.5 7.5 0 1 0 -15 0zM112.45 8.89 a7.5 7.5 0 1 0 15 0 a7.5 7.5 0 1 0 -15 0zM112.45 83.89 a7.5 7.5 0 1 0 15 0 a7.5 7.5 0 1 0 -15 0zM47.5 121.39 a7.5 7.5 0 1 0 15 0 a7.5 7.5 0 1 0 -15 0zM-17.45 83.89 a7.5 7.5 0 1 0 15 0 a7.5 7.5 0 1 0 -15 0zM-17.45 8.89 a7.5 7.5 0 1 0 15 0 a7.5 7.5 0 1 0 -15 0zM47.5 196.39 a7.5 7.5 0 1 0 15 0 a7.5 7.5 0 1 0 -15 0zM112.45 233.89 a7.5 7.5 0 1 0 15 0 a7.5 7.5 0 1 0 -15 0zM112.45 308.89 a7.5 7.5 0 1 0 15 0 a7.5 7.5 0 1 0 -15 0zM47.5 346.39 a7.5 7.5 0 1 0 15 0 a7.5 7.5 0 1 0 -15 0zM-17.45 308.89 a7.5 7.5 0 1 0 15 0 a7.5 7.5 0 1 0 -15 0zM-17.45 233.89 a7.5 7.5 0 1 0 15 0 a7.5 7.5 0 1 0 -15 0zM177.41 346.39 a7.5 7.5 0 1 0 15 0 a7.5 7.5 0 1 0 -15 0zM177.41 421.39 a7.5 7.5 0 1 0 15 0 a7.5 7.5 0 1 0 -15 0zM112.45 458.89 a7.5 7.5 0 1 0 15 0 a7.5 7.5 0 1 0 -15 0zM47.5 421.39 a7.5 7.5 0 1 0 15 0 a7.5 7.5 0 1 0 -15 0zM112.45 533.89 a7.5 7.5 0 1 0 15 0 a7.5 7.5 0 1 0 -15 0zM47.5 571.39 a7.5 7.5 0 1 0 15 0 a7.5 7.5 0 1 0 -15 0zM-17.45 533.89 a7.5 7.5 0 1 0 15 0 a7.5 7.5 0 1 0 -15 0zM-17.45 458.89 a7.5 7.5 0 1 0 15 0 a7.5 7.5 0 1 0 -15 0zM177.41 -28.61 a7.5 7.5 0 1 0 15 0 a7.5 7.5 0 1 0 -15 0zM242.36 8.89 a7.5 7.5 0 1 0 15 0 a7.5 7.5 0 1 0 -15 0zM242.36 83.89 a7.5 7.5 0 1 0 15 0 a7.5 7.5 0 1 0 -15 0zM177.41 121.39 a7.5 7.5 0 1 0 15 0 a7.5 7.5 0 1 0 -15 0zM307.31 121.39 a7.5 7.5 0 1 0 15 0 a7.5 7.5 0 1 0 -15 0zM307.31 196.39 a7.5 7.5 0 1 0 15 0 a7.5 7.5 0 1 0 -15 0zM242.36 233.89 a7.5 7.5 0 1 0 15 0 a7.5 7.5 0 1 0 -15 0zM177.41 196.39 a7.5 7.5 0 1 0 15 0 a7.5 7.5 0 1 0 -15 0zM242.36 533.89 a7.5 7.5 0 1 0 15 0 a7.5 7.5 0 1 0 -15 0zM307.31 571.39 a7.5 7.5 0 1 0 15 0 a7.5 7.5 0 1 0 -15 0zM307.31 646.39 a7.5 7.5 0 1 0 15 0 a7.5 7.5 0 1 0 -15 0zM242.36 683.89 a7.5 7.5 0 1 0 15 0 a7.5 7.5 0 1 0 -15 0zM177.41 646.39 a7.5 7.5 0 1 0 15 0 a7.5 7.5 0 1 0 -15 0zM177.41 571.39 a7.5 7.5 0 1 0 15 0 a7.5 7.5 0 1 0 -15 0zM307.31 -28.61 a7.5 7.5 0 1 0 15 0 a7.5 7.5 0 1 0 -15 0zM372.27 8.89 a7.5 7.5 0 1 0 15 0 a7.5 7.5 0 1 0 -15 0zM372.27 83.89 a7.5 7.5 0 1 0 15 0 a7.5 7.5 0 1 0 -15 0zM437.22 121.39 a7.5 7.5 0 1 0 15 0 a7.5 7.5 0 1 0 -15 0zM437.22 196.39 a7.5 7.5 0 1 0 15 0 a7.5 7.5 0 1 0 -15 0zM372.27 233.89 a7.5 7.5 0 1 0 15 0 a7.5 7.5 0 1 0 -15 0zM372.27 308.89 a7.5 7.5 0 1 0 15 0 a7.5 7.5 0 1 0 -15 0zM437.22 346.39 a7.5 7.5 0 1 0 15 0 a7.5 7.5 0 1 0 -15 0zM437.22 421.39 a7.5 7.5 0 1 0 15 0 a7.5 7.5 0 1 0 -15 0zM372.27 458.89 a7.5 7.5 0 1 0 15 0 a7.5 7.5 0 1 0 -15 0zM307.31 421.39 a7.5 7.5 0 1 0 15 0 a7.5 7.5 0 1 0 -15 0zM307.31 346.39 a7.5 7.5 0 1 0 15 0 a7.5 7.5 0 1 0 -15 0zM372.27 533.89 a7.5 7.5 0 1 0 15 0 a7.5 7.5 0 1 0 -15 0zM242.36 458.89 a7.5 7.5 0 1 0 15 0 a7.5 7.5 0 1 0 -15 0zM437.22 -28.61 a7.5 7.5 0 1 0 15 0 a7.5 7.5 0 1 0 -15 0zM502.18 8.89 a7.5 7.5 0 1 0 15 0 a7.5 7.5 0 1 0 -15 0zM502.18 83.89 a7.5 7.5 0 1 0 15 0 a7.5 7.5 0 1 0 -15 0zM567.13 121.39 a7.5 7.5 0 1 0 15 0 a7.5 7.5 0 1 0 -15 0zM567.13 196.39 a7.5 7.5 0 1 0 15 0 a7.5 7.5 0 1 0 -15 0zM502.18 233.89 a7.5 7.5 0 1 0 15 0 a7.5 7.5 0 1 0 -15 0zM502.18 458.89 a7.5 7.5 0 1 0 15 0 a7.5 7.5 0 1 0 -15 0zM502.18 533.89 a7.5 7.5 0 1 0 15 0 a7.5 7.5 0 1 0 -15 0zM437.22 571.39 a7.5 7.5 0 1 0 15 0 a7.5 7.5 0 1 0 -15 0zM567.13 571.39 a7.5 7.5 0 1 0 15 0 a7.5 7.5 0 1 0 -15 0zM567.13 646.39 a7.5 7.5 0 1 0 15 0 a7.5 7.5 0 1 0 -15 0zM502.18 683.89 a7.5 7.5 0 1 0 15 0 a7.5 7.5 0 1 0 -15 0zM437.22 646.39 a7.5 7.5 0 1 0 15 0 a7.5 7.5 0 1 0 -15 0zM632.08 83.89 a7.5 7.5 0 1 0 15 0 a7.5 7.5 0 1 0 -15 0zM697.04 121.39 a7.5 7.5 0 1 0 15 0 a7.5 7.5 0 1 0 -15 0zM697.04 196.39 a7.5 7.5 0 1 0 15 0 a7.5 7.5 0 1 0 -15 0zM632.08 233.89 a7.5 7.5 0 1 0 15 0 a7.5 7.5 0 1 0 -15 0zM632.08 308.89 a7.5 7.5 0 1 0 15 0 a7.5 7.5 0 1 0 -15 0zM567.13 346.39 a7.5 7.5 0 1 0 15 0 a7.5 7.5 0 1 0 -15 0zM502.18 308.89 a7.5 7.5 0 1 0 15 0 a7.5 7.5 0 1 0 -15 0zM697.04 -28.61 a7.5 7.5 0 1 0 15 0 a7.5 7.5 0 1 0 -15 0zM761.99 8.89 a7.5 7.5 0 1 0 15 0 a7.5 7.5 0 1 0 -15 0zM761.99 83.89 a7.5 7.5 0 1 0 15 0 a7.5 7.5 0 1 0 -15 0zM632.08 8.89 a7.5 7.5 0 1 0 15 0 a7.5 7.5 0 1 0 -15 0zM697.04 421.39 a7.5 7.5 0 1 0 15 0 a7.5 7.5 0 1 0 -15 0zM761.99 458.89 a7.5 7.5 0 1 0 15 0 a7.5 7.5 0 1 0 -15 0zM761.99 533.89 a7.5 7.5 0 1 0 15 0 a7.5 7.5 0 1 0 -15 0zM697.04 571.39 a7.5 7.5 0 1 0 15 0 a7.5 7.5 0 1 0 -15 0zM632.08 533.89 a7.5 7.5 0 1 0 15 0 a7.5 7.5 0 1 0 -15 0zM632.08 458.89 a7.5 7.5 0 1 0 15 0 a7.5 7.5 0 1 0 -15 0zM826.95 571.39 a7.5 7.5 0 1 0 15 0 a7.5 7.5 0 1 0 -15 0zM826.95 646.39 a7.5 7.5 0 1 0 15 0 a7.5 7.5 0 1 0 -15 0zM761.99 683.89 a7.5 7.5 0 1 0 15 0 a7.5 7.5 0 1 0 -15 0zM697.04 646.39 a7.5 7.5 0 1 0 15 0 a7.5 7.5 0 1 0 -15 0zM891.9 533.89 a7.5 7.5 0 1 0 15 0 a7.5 7.5 0 1 0 -15 0zM956.85 571.39 a7.5 7.5 0 1 0 15 0 a7.5 7.5 0 1 0 -15 0zM956.85 646.39 a7.5 7.5 0 1 0 15 0 a7.5 7.5 0 1 0 -15 0zM891.9 683.89 a7.5 7.5 0 1 0 15 0 a7.5 7.5 0 1 0 -15 0zM826.94 646.39 a7.5 7.5 0 1 0 15 0 a7.5 7.5 0 1 0 -15 0zM826.94 571.39 a7.5 7.5 0 1 0 15 0 a7.5 7.5 0 1 0 -15 0zM956.85 -28.61 a7.5 7.5 0 1 0 15 0 a7.5 7.5 0 1 0 -15 0zM1021.81 8.89 a7.5 7.5 0 1 0 15 0 a7.5 7.5 0 1 0 -15 0zM1021.81 83.89 a7.5 7.5 0 1 0 15 0 a7.5 7.5 0 1 0 -15 0zM956.85 121.39 a7.5 7.5 0 1 0 15 0 a7.5 7.5 0 1 0 -15 0zM891.9 83.89 a7.5 7.5 0 1 0 15 0 a7.5 7.5 0 1 0 -15 0zM891.9 8.89 a7.5 7.5 0 1 0 15 0 a7.5 7.5 0 1 0 -15 0zM956.85 421.39 a7.5 7.5 0 1 0 15 0 a7.5 7.5 0 1 0 -15 0zM1021.81 458.89 a7.5 7.5 0 1 0 15 0 a7.5 7.5 0 1 0 -15 0zM1021.81 533.89 a7.5 7.5 0 1 0 15 0 a7.5 7.5 0 1 0 -15 0zM891.9 458.89 a7.5 7.5 0 1 0 15 0 a7.5 7.5 0 1 0 -15 0zM1086.76 571.39 a7.5 7.5 0 1 0 15 0 a7.5 7.5 0 1 0 -15 0zM1086.76 646.39 a7.5 7.5 0 1 0 15 0 a7.5 7.5 0 1 0 -15 0zM1021.81 683.89 a7.5 7.5 0 1 0 15 0 a7.5 7.5 0 1 0 -15 0zM1151.71 83.89 a7.5 7.5 0 1 0 15 0 a7.5 7.5 0 1 0 -15 0zM1216.67 121.39 a7.5 7.5 0 1 0 15 0 a7.5 7.5 0 1 0 -15 0zM1216.67 196.39 a7.5 7.5 0 1 0 15 0 a7.5 7.5 0 1 0 -15 0zM1151.71 233.89 a7.5 7.5 0 1 0 15 0 a7.5 7.5 0 1 0 -15 0zM1086.76 196.39 a7.5 7.5 0 1 0 15 0 a7.5 7.5 0 1 0 -15 0zM1086.76 121.39 a7.5 7.5 0 1 0 15 0 a7.5 7.5 0 1 0 -15 0zM1151.71 308.89 a7.5 7.5 0 1 0 15 0 a7.5 7.5 0 1 0 -15 0zM1086.76 346.39 a7.5 7.5 0 1 0 15 0 a7.5 7.5 0 1 0 -15 0zM1021.81 308.89 a7.5 7.5 0 1 0 15 0 a7.5 7.5 0 1 0 -15 0zM1021.81 233.89 a7.5 7.5 0 1 0 15 0 a7.5 7.5 0 1 0 -15 0zM1216.67 346.39 a7.5 7.5 0 1 0 15 0 a7.5 7.5 0 1 0 -15 0zM1216.67 421.39 a7.5 7.5 0 1 0 15 0 a7.5 7.5 0 1 0 -15 0zM1151.71 458.89 a7.5 7.5 0 1 0 15 0 a7.5 7.5 0 1 0 -15 0zM1086.76 421.39 a7.5 7.5 0 1 0 15 0 a7.5 7.5 0 1 0 -15 0zM1216.67 -28.61 a7.5 7.5 0 1 0 15 0 a7.5 7.5 0 1 0 -15 0zM1281.62 8.89 a7.5 7.5 0 1 0 15 0 a7.5 7.5 0 1 0 -15 0zM1281.62 83.89 a7.5 7.5 0 1 0 15 0 a7.5 7.5 0 1 0 -15 0zM1151.71 8.89 a7.5 7.5 0 1 0 15 0 a7.5 7.5 0 1 0 -15 0zM1346.57 121.39 a7.5 7.5 0 1 0 15 0 a7.5 7.5 0 1 0 -15 0zM1346.57 196.39 a7.5 7.5 0 1 0 15 0 a7.5 7.5 0 1 0 -15 0zM1281.62 233.89 a7.5 7.5 0 1 0 15 0 a7.5 7.5 0 1 0 -15 0zM1281.62 308.89 a7.5 7.5 0 1 0 15 0 a7.5 7.5 0 1 0 -15 0zM1346.58 196.39 a7.5 7.5 0 1 0 15 0 a7.5 7.5 0 1 0 -15 0zM1411.53 233.89 a7.5 7.5 0 1 0 15 0 a7.5 7.5 0 1 0 -15 0zM1411.53 308.89 a7.5 7.5 0 1 0 15 0 a7.5 7.5 0 1 0 -15 0zM1346.58 346.39 a7.5 7.5 0 1 0 15 0 a7.5 7.5 0 1 0 -15 0zM1476.48 -28.61 a7.5 7.5 0 1 0 15 0 a7.5 7.5 0 1 0 -15 0zM1541.44 8.89 a7.5 7.5 0 1 0 15 0 a7.5 7.5 0 1 0 -15 0zM1541.44 83.89 a7.5 7.5 0 1 0 15 0 a7.5 7.5 0 1 0 -15 0zM1476.48 121.39 a7.5 7.5 0 1 0 15 0 a7.5 7.5 0 1 0 -15 0zM1411.53 83.89 a7.5 7.5 0 1 0 15 0 a7.5 7.5 0 1 0 -15 0zM1411.53 8.89 a7.5 7.5 0 1 0 15 0 a7.5 7.5 0 1 0 -15 0zM1476.48 196.39 a7.5 7.5 0 1 0 15 0 a7.5 7.5 0 1 0 -15 0zM1541.44 233.89 a7.5 7.5 0 1 0 15 0 a7.5 7.5 0 1 0 -15 0zM1541.44 308.89 a7.5 7.5 0 1 0 15 0 a7.5 7.5 0 1 0 -15 0zM1476.48 346.39 a7.5 7.5 0 1 0 15 0 a7.5 7.5 0 1 0 -15 0z" fill="rgba(153, 154, 154, 0.13)"></path><path d="M85.21 31.97L128.51 56.97L128.51 106.97L85.21 131.97L41.91 106.97L41.91 56.97zM128.51 106.97L171.82 131.97L171.82 181.97L128.51 206.97L85.21 181.97L85.21 131.97zM171.82 181.97L215.12 206.97L215.12 256.97L171.82 281.97L128.51 256.97L128.51 206.97zM128.51 256.97L171.82 281.97L171.82 331.97L128.51 356.97L85.21 331.97L85.21 281.97zM301.73 -43.03L345.03 -18.03L345.03 31.97L301.73 56.97L258.42 31.97L258.42 -18.03zM345.03 181.97L388.33 206.97L388.33 256.97L345.03 281.97L301.73 256.97L301.73 206.97zM431.63 181.97L474.94 206.97L474.94 256.97L431.63 281.97L388.33 256.97L388.33 206.97zM734.75 406.97L778.05 431.97L778.05 481.97L734.75 506.97L691.45 481.97L691.45 431.97zM864.66 481.97L907.96 506.97L907.96 556.97L864.66 581.97L821.36 556.97L821.36 506.97zM1124.47 181.97L1167.78 206.97L1167.78 256.97L1124.47 281.97L1081.17 256.97L1081.17 206.97zM1081.17 406.97L1124.47 431.97L1124.47 481.97L1081.17 506.97L1037.87 481.97L1037.87 431.97zM1167.78 406.97L1211.08 431.97L1211.08 481.97L1167.78 506.97L1124.47 481.97L1124.47 431.97zM1254.38 106.97L1297.68 131.97L1297.68 181.97L1254.38 206.97L1211.08 181.97L1211.08 131.97zM1297.68 481.97L1340.99 506.97L1340.99 556.97L1297.68 581.97L1254.38 556.97L1254.38 506.97zM1340.99 106.97L1384.29 131.97L1384.29 181.97L1340.99 206.97L1297.68 181.97L1297.68 131.97zM1384.29 181.97L1427.59 206.97L1427.59 256.97L1384.29 281.97L1340.99 256.97L1340.99 206.97zM1427.59 106.97L1470.89 131.97L1470.89 181.97L1427.59 206.97L1384.29 181.97L1384.29 131.97z" stroke="rgba(0, 150, 136, 0.93)" stroke-width="2"></path></g><defs><mask id="SvgjsMask1082"><rect width="1440" height="560" fill="#ffffff"></rect></mask><linearGradient x1="15.28%" y1="-39.29%" x2="84.72%" y2="139.29%" gradientUnits="userSpaceOnUse" id="SvgjsLinearGradient1083"><stop stop-color="#0e2a47" offset="0"></stop><stop stop-color="rgba(0, 150, 136, 1)" offset="1"></stop></linearGradient></defs></svg>